<svg width="42" height="43" viewBox="0 0 42 43" fill="none" xmlns="http://www.w3.org/2000/svg">
<path d="M26.9824 3.24194C29.9244 4.03321 32.6069 5.5836 34.7611 7.73784C36.9154 9.89208 38.4658 12.5745 39.257 15.5166" stroke="#883303" stroke-width="2" stroke-linecap="round" stroke-linejoin="round"/>
<path d="M25.1868 9.94995C26.9516 10.4247 28.5607 11.3548 29.853 12.6471C31.1453 13.9394 32.0754 15.5485 32.5502 17.3133" stroke="#883303" stroke-width="2" stroke-linecap="round" stroke-linejoin="round"/>
<path d="M12.4625 21.6413C14.2621 25.3218 17.2449 28.2917 20.933 30.0755C21.2031 30.2034 21.5018 30.2587 21.7998 30.2359C22.0977 30.213 22.3846 30.1129 22.632 29.9453L28.0639 26.3252C28.3038 26.165 28.5799 26.0672 28.8671 26.0405C29.1544 26.0139 29.4437 26.0592 29.709 26.1725L39.8699 30.5284C40.215 30.675 40.5032 30.9298 40.691 31.2544C40.8788 31.579 40.9561 31.9558 40.9112 32.328C40.5895 34.8409 39.3631 37.1504 37.4616 38.8242C35.56 40.498 33.1135 41.4214 30.5802 41.4216C22.7558 41.4216 15.2518 38.3134 9.71909 32.7807C4.18637 27.248 1.07813 19.744 1.07812 11.9195C1.07836 9.3864 2.00185 6.9402 3.67571 5.0389C5.34957 3.1376 7.65903 1.91156 10.1717 1.59033C10.544 1.54543 10.9208 1.6227 11.2454 1.81049C11.5699 1.99829 11.8247 2.28645 11.9713 2.63158L16.3307 12.8011C16.4428 13.0639 16.4883 13.3503 16.4632 13.6348C16.4381 13.9194 16.3431 14.1934 16.1867 14.4324L12.577 19.9476C12.4132 20.1959 12.3165 20.4825 12.2964 20.7794C12.2764 21.0762 12.3336 21.3732 12.4625 21.6413V21.6413Z" stroke="#883303" stroke-width="2" stroke-linecap="round" stroke-linejoin="round"/>
</svg>
