<svg width="65" height="33" viewBox="0 0 65 33" fill="none" xmlns="http://www.w3.org/2000/svg">
<rect x="0.5" y="1.25" width="64" height="31" rx="4.79412" fill="#1A1A1A" stroke="#333333"/>
<g clip-path="url(#clip0_1_5849)">
<rect width="11" height="11" transform="translate(5 4.75)" fill="#1A1A1A"/>
<path d="M13.7083 9.79199H7.29167C6.78541 9.79199 6.375 10.2024 6.375 10.7087V13.917C6.375 14.4233 6.78541 14.8337 7.29167 14.8337H13.7083C14.2146 14.8337 14.625 14.4233 14.625 13.917V10.7087C14.625 10.2024 14.2146 9.79199 13.7083 9.79199Z" stroke="white" stroke-width="0.916667" stroke-linecap="round" stroke-linejoin="round"/>
<path d="M8.2085 9.79199V7.95866C8.2085 7.35087 8.44994 6.76798 8.87971 6.33821C9.30948 5.90843 9.89237 5.66699 10.5002 5.66699C11.108 5.66699 11.6908 5.90843 12.1206 6.33821C12.5504 6.76798 12.7918 7.35087 12.7918 7.95866V9.79199" stroke="white" stroke-width="0.916667" stroke-linecap="round" stroke-linejoin="round"/>
</g>
<path d="M21.278 13.827C20.772 13.827 20.3173 13.739 19.914 13.563C19.518 13.3797 19.2063 13.1303 18.979 12.815C18.7517 12.4923 18.6343 12.122 18.627 11.704H19.694C19.7307 12.0633 19.8773 12.3677 20.134 12.617C20.398 12.859 20.7793 12.98 21.278 12.98C21.7547 12.98 22.1287 12.8627 22.4 12.628C22.6787 12.386 22.818 12.078 22.818 11.704C22.818 11.4107 22.7373 11.1723 22.576 10.989C22.4147 10.8057 22.213 10.6663 21.971 10.571C21.729 10.4757 21.4027 10.373 20.992 10.263C20.486 10.131 20.079 9.999 19.771 9.867C19.4703 9.735 19.21 9.52967 18.99 9.251C18.7773 8.965 18.671 8.58367 18.671 8.107C18.671 7.689 18.7773 7.31867 18.99 6.996C19.2027 6.67333 19.4997 6.424 19.881 6.248C20.2697 6.072 20.7133 5.984 21.212 5.984C21.9307 5.984 22.5173 6.16367 22.972 6.523C23.434 6.88233 23.6943 7.359 23.753 7.953H22.653C22.6163 7.65967 22.4623 7.403 22.191 7.183C21.9197 6.95567 21.5603 6.842 21.113 6.842C20.695 6.842 20.354 6.952 20.09 7.172C19.826 7.38467 19.694 7.68533 19.694 8.074C19.694 8.35267 19.771 8.58 19.925 8.756C20.0863 8.932 20.2807 9.06767 20.508 9.163C20.7427 9.251 21.069 9.35367 21.487 9.471C21.993 9.61033 22.4 9.74967 22.708 9.889C23.016 10.021 23.28 10.23 23.5 10.516C23.72 10.7947 23.83 11.176 23.83 11.66C23.83 12.034 23.731 12.386 23.533 12.716C23.335 13.046 23.0417 13.3137 22.653 13.519C22.2643 13.7243 21.806 13.827 21.278 13.827ZM30.8031 10.505C30.8031 10.6957 30.7921 10.8973 30.7701 11.11H25.9521C25.9887 11.704 26.1904 12.1697 26.5571 12.507C26.9311 12.837 27.3821 13.002 27.9101 13.002C28.3427 13.002 28.7021 12.903 28.9881 12.705C29.2814 12.4997 29.4867 12.2283 29.6041 11.891H30.6821C30.5207 12.4703 30.1981 12.9433 29.7141 13.31C29.2301 13.6693 28.6287 13.849 27.9101 13.849C27.3381 13.849 26.8247 13.7207 26.3701 13.464C25.9227 13.2073 25.5707 12.8443 25.3141 12.375C25.0574 11.8983 24.9291 11.3483 24.9291 10.725C24.9291 10.1017 25.0537 9.55533 25.3031 9.086C25.5524 8.61667 25.9007 8.25733 26.3481 8.008C26.8027 7.75133 27.3234 7.623 27.9101 7.623C28.4821 7.623 28.9881 7.74767 29.4281 7.997C29.8681 8.24633 30.2054 8.591 30.4401 9.031C30.6821 9.46367 30.8031 9.955 30.8031 10.505ZM29.7691 10.296C29.7691 9.91467 29.6847 9.58833 29.5161 9.317C29.3474 9.03833 29.1164 8.82933 28.8231 8.69C28.5371 8.54333 28.2181 8.47 27.8661 8.47C27.3601 8.47 26.9274 8.63133 26.5681 8.954C26.2161 9.27667 26.0144 9.724 25.9631 10.296H29.7691ZM31.7503 10.725C31.7503 10.1017 31.875 9.559 32.1243 9.097C32.3737 8.62767 32.7183 8.26467 33.1583 8.008C33.6057 7.75133 34.1153 7.623 34.6873 7.623C35.428 7.623 36.0367 7.80267 36.5133 8.162C36.9973 8.52133 37.3163 9.02 37.4703 9.658H36.3923C36.2897 9.29133 36.088 9.00167 35.7873 8.789C35.494 8.57633 35.1273 8.47 34.6873 8.47C34.1153 8.47 33.6533 8.668 33.3013 9.064C32.9493 9.45267 32.7733 10.0063 32.7733 10.725C32.7733 11.451 32.9493 12.012 33.3013 12.408C33.6533 12.804 34.1153 13.002 34.6873 13.002C35.1273 13.002 35.494 12.8993 35.7873 12.694C36.0807 12.4887 36.2823 12.1953 36.3923 11.814H37.4703C37.309 12.43 36.9863 12.925 36.5023 13.299C36.0183 13.6657 35.4133 13.849 34.6873 13.849C34.1153 13.849 33.6057 13.7207 33.1583 13.464C32.7183 13.2073 32.3737 12.8443 32.1243 12.375C31.875 11.9057 31.7503 11.3557 31.7503 10.725ZM44.152 7.722V13.75H43.151V12.859C42.9603 13.167 42.6927 13.409 42.348 13.585C42.0107 13.7537 41.6367 13.838 41.226 13.838C40.7567 13.838 40.335 13.7427 39.961 13.552C39.587 13.354 39.29 13.0607 39.07 12.672C38.8573 12.2833 38.751 11.8103 38.751 11.253V7.722H39.741V11.121C39.741 11.715 39.8913 12.1733 40.192 12.496C40.4927 12.8113 40.9033 12.969 41.424 12.969C41.9593 12.969 42.381 12.804 42.689 12.474C42.997 12.144 43.151 11.6637 43.151 11.033V7.722H44.152ZM46.8431 8.701C47.0191 8.35633 47.2685 8.08867 47.5911 7.898C47.9211 7.70733 48.3208 7.612 48.7901 7.612V8.646H48.5261C47.4041 8.646 46.8431 9.25467 46.8431 10.472V13.75H45.8421V7.722H46.8431V8.701ZM55.4456 10.505C55.4456 10.6957 55.4346 10.8973 55.4126 11.11H50.5946C50.6313 11.704 50.833 12.1697 51.1996 12.507C51.5736 12.837 52.0246 13.002 52.5526 13.002C52.9853 13.002 53.3446 12.903 53.6306 12.705C53.924 12.4997 54.1293 12.2283 54.2466 11.891H55.3246C55.1633 12.4703 54.8406 12.9433 54.3566 13.31C53.8726 13.6693 53.2713 13.849 52.5526 13.849C51.9806 13.849 51.4673 13.7207 51.0126 13.464C50.5653 13.2073 50.2133 12.8443 49.9566 12.375C49.7 11.8983 49.5716 11.3483 49.5716 10.725C49.5716 10.1017 49.6963 9.55533 49.9456 9.086C50.195 8.61667 50.5433 8.25733 50.9906 8.008C51.4453 7.75133 51.966 7.623 52.5526 7.623C53.1246 7.623 53.6306 7.74767 54.0706 7.997C54.5106 8.24633 54.848 8.591 55.0826 9.031C55.3246 9.46367 55.4456 9.955 55.4456 10.505ZM54.4116 10.296C54.4116 9.91467 54.3273 9.58833 54.1586 9.317C53.99 9.03833 53.759 8.82933 53.4656 8.69C53.1796 8.54333 52.8606 8.47 52.5086 8.47C52.0026 8.47 51.57 8.63133 51.2106 8.954C50.8586 9.27667 50.657 9.724 50.6056 10.296H54.4116Z" fill="white"/>
<path d="M11.8032 20.966C11.8032 21.414 11.6952 21.834 11.4792 22.226C11.2712 22.618 10.9392 22.934 10.4832 23.174C10.0352 23.414 9.46719 23.534 8.77919 23.534H7.37519V26.75H5.69519V18.374H8.77919C9.42719 18.374 9.97919 18.486 10.4352 18.71C10.8912 18.934 11.2312 19.242 11.4552 19.634C11.6872 20.026 11.8032 20.47 11.8032 20.966ZM8.70719 22.178C9.17119 22.178 9.51519 22.074 9.73919 21.866C9.96319 21.65 10.0752 21.35 10.0752 20.966C10.0752 20.15 9.61919 19.742 8.70719 19.742H7.37519V22.178H8.70719ZM12.564 23.402C12.564 22.73 12.696 22.134 12.96 21.614C13.232 21.094 13.596 20.694 14.052 20.414C14.516 20.134 15.032 19.994 15.6 19.994C16.096 19.994 16.528 20.094 16.896 20.294C17.272 20.494 17.572 20.746 17.796 21.05V20.102H19.488V26.75H17.796V25.778C17.58 26.09 17.28 26.35 16.896 26.558C16.52 26.758 16.084 26.858 15.588 26.858C15.028 26.858 14.516 26.714 14.052 26.426C13.596 26.138 13.232 25.734 12.96 25.214C12.696 24.686 12.564 24.082 12.564 23.402ZM17.796 23.426C17.796 23.018 17.716 22.67 17.556 22.382C17.396 22.086 17.18 21.862 16.908 21.71C16.636 21.55 16.344 21.47 16.032 21.47C15.72 21.47 15.432 21.546 15.168 21.698C14.904 21.85 14.688 22.074 14.52 22.37C14.36 22.658 14.28 23.002 14.28 23.402C14.28 23.802 14.36 24.154 14.52 24.458C14.688 24.754 14.904 24.982 15.168 25.142C15.44 25.302 15.728 25.382 16.032 25.382C16.344 25.382 16.636 25.306 16.908 25.154C17.18 24.994 17.396 24.77 17.556 24.482C17.716 24.186 17.796 23.834 17.796 23.426ZM27.4888 20.102L23.3728 29.894H21.5848L23.0248 26.582L20.3608 20.102H22.2448L23.9608 24.746L25.7008 20.102H27.4888ZM36.6504 20.006C37.4664 20.006 38.1224 20.258 38.6184 20.762C39.1224 21.258 39.3744 21.954 39.3744 22.85V26.75H37.6944V23.078C37.6944 22.558 37.5624 22.162 37.2984 21.89C37.0344 21.61 36.6744 21.47 36.2184 21.47C35.7624 21.47 35.3984 21.61 35.1264 21.89C34.8624 22.162 34.7304 22.558 34.7304 23.078V26.75H33.0504V23.078C33.0504 22.558 32.9184 22.162 32.6544 21.89C32.3904 21.61 32.0304 21.47 31.5744 21.47C31.1104 21.47 30.7424 21.61 30.4704 21.89C30.2064 22.162 30.0744 22.558 30.0744 23.078V26.75H28.3944V20.102H30.0744V20.906C30.2904 20.626 30.5664 20.406 30.9024 20.246C31.2464 20.086 31.6224 20.006 32.0304 20.006C32.5504 20.006 33.0144 20.118 33.4224 20.342C33.8304 20.558 34.1464 20.87 34.3704 21.278C34.5864 20.894 34.8984 20.586 35.3064 20.354C35.7224 20.122 36.1704 20.006 36.6504 20.006ZM47.1486 23.282C47.1486 23.522 47.1326 23.738 47.1006 23.93H42.2406C42.2806 24.41 42.4486 24.786 42.7446 25.058C43.0406 25.33 43.4046 25.466 43.8366 25.466C44.4606 25.466 44.9046 25.198 45.1686 24.662H46.9806C46.7886 25.302 46.4206 25.83 45.8766 26.246C45.3326 26.654 44.6646 26.858 43.8726 26.858C43.2326 26.858 42.6566 26.718 42.1446 26.438C41.6406 26.15 41.2446 25.746 40.9566 25.226C40.6766 24.706 40.5366 24.106 40.5366 23.426C40.5366 22.738 40.6766 22.134 40.9566 21.614C41.2366 21.094 41.6286 20.694 42.1326 20.414C42.6366 20.134 43.2166 19.994 43.8726 19.994C44.5046 19.994 45.0686 20.13 45.5646 20.402C46.0686 20.674 46.4566 21.062 46.7286 21.566C47.0086 22.062 47.1486 22.634 47.1486 23.282ZM45.4086 22.802C45.4006 22.37 45.2446 22.026 44.9406 21.77C44.6366 21.506 44.2646 21.374 43.8246 21.374C43.4086 21.374 43.0566 21.502 42.7686 21.758C42.4886 22.006 42.3166 22.354 42.2526 22.802H45.4086ZM52.0589 20.006C52.8509 20.006 53.4909 20.258 53.9789 20.762C54.4669 21.258 54.7109 21.954 54.7109 22.85V26.75H53.0309V23.078C53.0309 22.55 52.8989 22.146 52.6349 21.866C52.3709 21.578 52.0109 21.434 51.5549 21.434C51.0909 21.434 50.7229 21.578 50.4509 21.866C50.1869 22.146 50.0549 22.55 50.0549 23.078V26.75H48.3749V20.102H50.0549V20.93C50.2789 20.642 50.5629 20.418 50.9069 20.258C51.2589 20.09 51.6429 20.006 52.0589 20.006ZM58.2645 21.482V24.698C58.2645 24.922 58.3165 25.086 58.4205 25.19C58.5325 25.286 58.7165 25.334 58.9725 25.334H59.7525V26.75H58.6965C57.2805 26.75 56.5725 26.062 56.5725 24.686V21.482H55.7805V20.102H56.5725V18.458H58.2645V20.102H59.7525V21.482H58.2645Z" fill="white"/>
<defs>
<clipPath id="clip0_1_5849">
<rect width="11" height="11" fill="white" transform="translate(5 4.75)"/>
</clipPath>
</defs>
</svg>
