<svg width="52" height="41" viewBox="0 0 52 41" fill="none" xmlns="http://www.w3.org/2000/svg">
<path d="M48.95 0.949707H3.05C1.64172 0.949707 0.5 2.09133 0.5 3.49971V37.4997C0.5 38.908 1.64162 40.0497 3.05 40.0497H48.95C50.3583 40.0497 51.5 38.9081 51.5 37.4997V3.49971C51.5 2.09143 50.3584 0.949707 48.95 0.949707ZM49.8 37.4998C49.8 37.9692 49.4195 38.3497 48.95 38.3497H3.05C2.58054 38.3497 2.20003 37.9692 2.20003 37.4998V3.49971C2.20003 3.03025 2.58054 2.64974 3.05 2.64974H48.95C49.4195 2.64974 49.8 3.03025 49.8 3.49971V37.4998Z" fill="#883303"/>
<path d="M47.3244 4.35314C47.0998 4.33351 46.8766 4.40394 46.7039 4.54897L27.0943 21.0219C26.4619 21.5535 25.5388 21.5535 24.9064 21.0219L5.29703 4.54887C5.06444 4.35363 4.74529 4.29725 4.45991 4.40105C4.17453 4.50484 3.96614 4.75307 3.91335 5.05219C3.86056 5.35132 3.97132 5.65583 4.20391 5.85106L23.8134 22.3232C25.0773 23.3873 26.9236 23.3873 28.1876 22.3232L47.797 5.85116C47.9697 5.70623 48.0777 5.49864 48.0973 5.27402C48.1169 5.04941 48.0465 4.82618 47.9014 4.65356C47.7566 4.48074 47.549 4.37276 47.3244 4.35314Z" fill="#883303"/>
<path d="M16.8483 22.2057C16.5474 22.1386 16.2338 22.2396 16.0286 22.4697L4.12856 35.2197C3.91321 35.4402 3.83412 35.7602 3.92197 36.0556C4.00983 36.3512 4.25079 36.5759 4.55161 36.643C4.85253 36.7101 5.1661 36.6091 5.37129 36.379L17.2713 23.629C17.4867 23.4085 17.5658 23.0886 17.4779 22.7931C17.3901 22.4977 17.1492 22.2729 16.8483 22.2057Z" fill="#883303"/>
<path d="M35.9709 22.4697C35.7658 22.2396 35.4521 22.1386 35.1512 22.2057C34.8503 22.2729 34.6094 22.4977 34.5216 22.7931C34.4337 23.0887 34.5128 23.4085 34.7282 23.629L46.6282 36.3791C46.9509 36.7096 47.4785 36.7219 47.8162 36.4067C48.154 36.0916 48.1783 35.5644 47.8709 35.2196L35.9709 22.4697Z" fill="#883303"/>
</svg>
