<svg width="45" height="33" viewBox="0 0 45 33" fill="none" xmlns="http://www.w3.org/2000/svg">
<rect x="0.5" y="1.25" width="44" height="30.7647" rx="4.79412" fill="#1A1A1A" stroke="#333333"/>
<path fill-rule="evenodd" clip-rule="evenodd" d="M12.5064 11.7924C12.1287 12.2581 11.5244 12.6255 10.92 12.573C10.8445 11.9432 11.1404 11.2741 11.4866 10.8609C11.8643 10.382 12.5253 10.0409 13.0604 10.0146C13.1234 10.6706 12.8779 11.3135 12.5064 11.7924ZM13.054 12.6974C12.5216 12.6655 12.0358 12.8643 11.6434 13.0248C11.3908 13.1282 11.177 13.2157 11.0143 13.2157C10.8318 13.2157 10.6091 13.1235 10.3591 13.02C10.0315 12.8844 9.657 12.7293 9.26426 12.7368C8.36405 12.7499 7.52679 13.2813 7.06724 14.1275C6.12296 15.8199 6.82172 18.3257 7.73453 19.7033C8.18149 20.3855 8.71658 21.1333 9.42164 21.1071C9.73182 21.0949 9.95495 20.9962 10.1859 20.8941C10.4517 20.7766 10.7279 20.6545 11.1591 20.6545C11.5754 20.6545 11.8395 20.7734 12.093 20.8876C12.334 20.9961 12.5655 21.1004 12.9092 21.094C13.6394 21.0809 14.099 20.4118 14.5459 19.7295C15.0283 18.9973 15.2402 18.2827 15.2724 18.1743L15.2762 18.1617C15.2754 18.1609 15.2694 18.1581 15.2589 18.1531C15.0977 18.0762 13.8653 17.4883 13.8535 15.9117C13.8416 14.5885 14.831 13.918 14.9867 13.8125C14.9962 13.8061 15.0026 13.8017 15.0055 13.7995C14.376 12.8286 13.3939 12.7237 13.054 12.6974ZM18.1094 21.0221V10.7953H21.7921C23.6932 10.7953 25.0215 12.1598 25.0215 14.1539C25.0215 16.1481 23.668 17.5257 21.7417 17.5257H19.6328V21.0221H18.1094ZM19.6326 12.1337H21.389C22.7109 12.1337 23.4664 12.8684 23.4664 14.1607C23.4664 15.453 22.7109 16.1942 21.3827 16.1942H19.6326V12.1337ZM30.0513 19.7953C29.6484 20.5956 28.7608 21.1007 27.8039 21.1007C26.3875 21.1007 25.3991 20.2217 25.3991 18.8966C25.3991 17.5846 26.356 16.8302 28.1249 16.7187L30.0261 16.6007V16.0365C30.0261 15.2034 29.5036 14.7508 28.5719 14.7508C27.8039 14.7508 27.2436 15.1641 27.1303 15.7938H25.758C25.802 14.4687 26.9981 13.5044 28.616 13.5044C30.3597 13.5044 31.4929 14.4556 31.4929 15.9316V21.022H30.0827V19.7953H30.0513ZM28.2125 19.8874C27.4004 19.8874 26.8842 19.4807 26.8842 18.8575C26.8842 18.2146 27.3815 17.8407 28.3321 17.7817L30.0255 17.6702V18.2474C30.0255 19.2052 29.2449 19.8874 28.2125 19.8874ZM36.1702 21.4219C35.5596 23.2128 34.8608 23.8032 33.3751 23.8032C33.2618 23.8032 32.8841 23.79 32.796 23.7638V22.5371C32.8904 22.5502 33.1233 22.5633 33.2429 22.5633C33.9165 22.5633 34.2942 22.2682 34.5272 21.5007L34.6657 21.048L32.0846 13.6027H33.6773L35.4714 19.6442H35.5029L37.2971 13.6027H38.8457L36.1702 21.4219Z" fill="white"/>
</svg>
