<svg width="45" height="33" viewBox="0 0 45 33" fill="none" xmlns="http://www.w3.org/2000/svg">
<rect x="0.5" y="1.25" width="44" height="30.7647" rx="4.79412" fill="#1A1A1A" stroke="#333333"/>
<path fill-rule="evenodd" clip-rule="evenodd" d="M28.5579 25.1425C33.5143 25.1425 37.5323 21.1723 37.5323 16.2749C37.5323 11.3774 33.5143 7.40723 28.5579 7.40723C26.3366 7.40723 24.3039 8.2046 22.7368 9.52547C21.1697 8.2047 19.137 7.40738 16.9158 7.40738C11.9594 7.40738 7.94141 11.3776 7.94141 16.275C7.94141 21.1725 11.9594 25.1427 16.9158 25.1427C19.1371 25.1427 21.1699 24.3453 22.737 23.0244C24.304 24.3452 26.3367 25.1425 28.5579 25.1425Z" fill="#ED0006"/>
<path fill-rule="evenodd" clip-rule="evenodd" d="M22.7373 23.024C24.6668 21.3975 25.8903 18.9774 25.8903 16.2749C25.8903 13.5724 24.6668 11.1522 22.7373 9.52576C24.3045 8.20472 26.3374 7.40723 28.5588 7.40723C33.5152 7.40723 37.5332 11.3774 37.5332 16.2749C37.5332 21.1723 33.5152 25.1425 28.5588 25.1425C26.3374 25.1425 24.3045 24.345 22.7373 23.024Z" fill="#F9A000"/>
<path fill-rule="evenodd" clip-rule="evenodd" d="M22.7368 23.0242C24.6665 21.3977 25.8901 18.9774 25.8901 16.2748C25.8901 13.5721 24.6665 11.1519 22.7368 9.52539C20.8071 11.1519 19.5835 13.5721 19.5835 16.2748C19.5835 18.9774 20.8071 21.3977 22.7368 23.0242Z" fill="#FF5E00"/>
</svg>
