<svg width="45" height="33" viewBox="0 0 45 33" fill="none" xmlns="http://www.w3.org/2000/svg">
<rect x="0.5" y="1.25" width="44" height="30.7647" rx="4.79412" fill="#1A1A1A" stroke="#333333"/>
<path d="M18.5293 31.4262L43.6764 23.8159V27.4556C43.6764 29.6485 41.8987 31.4262 39.7058 31.4262H18.5293Z" fill="#FD6020"/>
<path fill-rule="evenodd" clip-rule="evenodd" d="M38.9033 12.8083C40.2868 12.8083 41.0477 13.4483 41.0477 14.6572C41.1169 15.5816 40.4943 16.3638 39.6642 16.506L41.5319 19.137H40.0793L38.4883 16.5771H38.3499V19.137H37.174V12.8083H38.9033ZM38.3502 15.724H38.696C39.457 15.724 39.8028 15.3685 39.8028 14.7285C39.8028 14.1596 39.457 13.8041 38.696 13.8041H38.3502V15.724ZM33.0929 19.137H36.4132V18.0704H34.2688V16.3638H36.344V15.2971H34.2688V13.875H36.4132V12.8083H33.0929V19.137ZM29.6345 17.0749L28.0435 12.8083H26.7984L29.3578 19.2793H29.9804L32.5398 12.8083H31.2947L29.6345 17.0749ZM15.5917 16.0079C15.5917 17.7857 16.9751 19.2789 18.7045 19.2789C19.2579 19.2789 19.7421 19.1367 20.2263 18.9234V17.5012C19.8804 17.9279 19.3962 18.2123 18.8428 18.2123C17.736 18.2123 16.8368 17.359 16.8368 16.2213V16.079C16.7676 14.9413 17.6669 13.9458 18.7737 13.8746C19.327 13.8746 19.8804 14.1591 20.2263 14.5857V13.1636C19.8113 12.8791 19.2579 12.808 18.7737 12.808C16.9751 12.6658 15.5917 14.1591 15.5917 16.0079ZM13.4476 15.226C12.7558 14.9416 12.5483 14.7994 12.5483 14.4438C12.6175 14.0172 12.9634 13.6616 13.3784 13.7328C13.7243 13.7328 14.0701 13.9461 14.3468 14.2305L14.9694 13.3772C14.4852 12.9505 13.8626 12.6661 13.2401 12.6661C12.2716 12.595 11.4415 13.3772 11.3724 14.3727V14.4438C11.3724 15.2972 11.7182 15.7949 12.825 16.1505C13.1017 16.2216 13.3784 16.3638 13.6551 16.506C13.8626 16.6482 14.001 16.8616 14.001 17.146C14.001 17.6438 13.5859 18.0704 13.1709 18.0704H13.1017C12.5483 18.0704 12.0641 17.7149 11.8566 17.2171L11.0957 17.9993C11.5107 18.7815 12.3408 19.2082 13.1709 19.2082C14.2777 19.2793 15.1769 18.426 15.2461 17.2882V17.0749C15.1769 16.2216 14.831 15.7949 13.4476 15.226ZM9.43543 19.137H10.6114V12.8083H9.43543V19.137ZM3.9707 12.8083H5.70005H6.04592C7.70609 12.8794 9.0204 14.3016 8.95122 16.0082C8.95122 16.9327 8.53618 17.786 7.84444 18.4259C7.22188 18.9237 6.46096 19.2081 5.70005 19.137H3.9707V12.8083ZM5.49264 18.07C6.04603 18.1411 6.6686 17.9278 7.08364 17.5722C7.49868 17.1456 7.70621 16.5767 7.70621 15.9367C7.70621 15.3679 7.49868 14.799 7.08364 14.3723C6.6686 14.0168 6.04603 13.8035 5.49264 13.8746H5.14677V18.07H5.49264Z" fill="white"/>
<path fill-rule="evenodd" clip-rule="evenodd" d="M23.7543 12.6616C22.0249 12.6616 20.5723 14.0838 20.5723 15.9326C20.5723 17.7104 21.9557 19.2037 23.7543 19.2748C25.5528 19.3459 26.9363 17.8526 27.0054 16.0038C26.9363 14.1549 25.5528 12.6616 23.7543 12.6616V12.6616Z" fill="#FD6020"/>
</svg>
