<svg width="45" height="33" viewBox="0 0 45 33" fill="none" xmlns="http://www.w3.org/2000/svg">
<rect x="0.5" y="1.25" width="44" height="30.7647" rx="4.79412" fill="#1A1A1A" stroke="#333333"/>
<path fill-rule="evenodd" clip-rule="evenodd" d="M14.2279 21.7389H11.5017L9.45748 13.7105C9.36045 13.3412 9.15443 13.0147 8.85138 12.8608C8.09508 12.4741 7.26169 12.1664 6.35254 12.0112V11.7021H10.7441C11.3502 11.7021 11.8048 12.1664 11.8806 12.7056L12.9412 18.4967L15.666 11.7021H18.3164L14.2279 21.7389ZM19.8314 21.7389H17.2568L19.3768 11.7021H21.9514L19.8314 21.7389ZM25.2823 14.4827C25.3581 13.9421 25.8127 13.633 26.343 13.633C27.1764 13.5554 28.0842 13.7106 28.8419 14.096L29.2964 11.935C28.5388 11.6259 27.7054 11.4707 26.9491 11.4707C24.4503 11.4707 22.632 12.8609 22.632 14.7904C22.632 16.2583 23.9199 17.029 24.8291 17.4933C25.8127 17.9563 26.1915 18.2654 26.1157 18.7283C26.1157 19.4228 25.3581 19.7319 24.6018 19.7319C23.6927 19.7319 22.7835 19.5004 21.9514 19.1137L21.4969 21.276C22.406 21.6614 23.3896 21.8166 24.2988 21.8166C27.1006 21.8929 28.8419 20.5039 28.8419 18.4193C28.8419 15.794 25.2823 15.6401 25.2823 14.4827V14.4827ZM37.8528 21.7389L35.8085 11.7021H33.6127C33.1582 11.7021 32.7036 12.0112 32.5521 12.4741L28.7666 21.7389H31.417L31.946 20.2723H35.2024L35.5055 21.7389H37.8528ZM33.991 14.4053L34.7473 18.188H32.6273L33.991 14.4053Z" fill="white"/>
</svg>
