<svg width="16" height="18" viewBox="0 0 16 18" fill="none" xmlns="http://www.w3.org/2000/svg">
<path d="M8.24446 0C3.31112 0 0.6875 3.16139 0.6875 6.60855C0.6875 8.20724 1.58079 10.2008 3.01073 10.8331C3.22786 10.931 3.34599 10.8894 3.39437 10.688C3.43712 10.535 3.62501 9.79807 3.71614 9.45042C3.74426 9.33904 3.72964 9.24229 3.63963 9.13766C3.16486 8.58864 2.78797 7.58847 2.78797 6.65017C2.78797 4.24594 4.69943 1.91146 7.95195 1.91146C10.7646 1.91146 12.7323 3.73854 12.7323 6.35204C12.7323 9.30529 11.1696 11.3484 9.13888 11.3484C8.01495 11.3484 7.17792 10.4663 7.44343 9.37505C7.76407 8.07561 8.39297 6.6783 8.39297 5.74113C8.39297 4.90072 7.9182 4.20544 6.94841 4.20544C5.80423 4.20544 4.87606 5.33837 4.87606 6.85943C4.87606 7.82585 5.21808 8.47838 5.21808 8.47838C5.21808 8.47838 4.08628 13.0506 3.87589 13.9045C3.52038 15.3502 3.92427 17.6914 3.95915 17.8928C3.98052 18.0042 4.1054 18.0391 4.17516 17.9479C4.28654 17.8017 5.6546 15.8497 6.03824 14.4389C6.17775 13.9248 6.7504 11.84 6.7504 11.84C7.12729 12.5207 8.21521 13.0911 9.37401 13.0911C12.8212 13.0911 15.312 10.0613 15.312 6.30141C15.2997 2.69675 12.2148 0 8.24446 0Z" fill="#4D4D4D"/>
</svg>
